# xmcd
#
# Track frame offsets: 
#        150
#        20887
#        38965
#        56990
#        74508
#        94999
#        114031
#        132285
#        152792
#        170155
#        185171
#        202242
#        220253
#        239808
#        257326
#        275477
#
# Disc length: 3922 seconds
#
# Revision: 1
# Processed by: cddbd v1.5.2PL0 Copyright (c) Steve Scherf et al.
# Submitted via: ExactAudioCopy v1.3
#
DISCID=040f5010
DTITLE=Various Artist - Το ρεμπέτικο τραγούδι στην Αμερική [CD2] 
DYEAR=2008
DGENRE=Rebetiko
TTITLE0=Γιώργος Κατσαρός - Όλη μέρα παίζεις ζάρια (παραδοσιακό)
TTITLE1=Κώστας Μπέζος - Τούτο το καλοκαιράκι (παραδοσιακό)
TTITLE2=Κώστας Δούσιας - Μανωλάκης ο χασικλής 
TTITLE3=Μαρίκα Παπαγκίκα - Στη φυλακή με βάλανε (παραδοσιακό)
TTITLE4=Γιώργος Κατσαρός - Βρε τι μάγκας που 'μαι εγώ (παραδοσιακό)
TTITLE5=Κώστας Δούσιας - Κουκλίτσα μου 
TTITLE6=Μανώλης Καραπιπέρης - Αϊβαλιώτικο ζεϊμπέκικο (παραδοσιακό)
TTITLE7=Γιώργος Κατσαρός - Έρχομαι τον τοίχο τοίχο (παραδοσιακό)
TTITLE8=Γιαννάκης Ιωαννίδης - Ήμουνα μόρτης μιά φορά
TTITLE9=Μαρίκα Παπαγκίκα - Σμυρνιά (παραδοσιακό)
TTITLE10=Κώστας Δούσιας - Εργάτης τιμημένος 
TTITLE11=Α. Κωστής - Αδυνάτισα ο καημένος (παραδοσιακό)
TTITLE12=Γιώργος Κατσαρός - Τράβα μάγκα στη δουλειά σου (παραδοσιακό)
TTITLE13=Μαρίκα Παπαγκίκα - Αγιά Σοφιά (παραδοσιακό)
TTITLE14=Τέτος Δημητριάδης - Για δες με 
TTITLE15=Α. Κωστής - Κάηκε ένα σχολείο (παραδοσιακό)
EXTD=
EXTT0=
EXTT1=
EXTT2=
EXTT3=
EXTT4=
EXTT5=
EXTT6=
EXTT7=
EXTT8=
EXTT9=
EXTT10=
EXTT11=
EXTT12=
EXTT13=
EXTT14=
EXTT15=
PLAYORDER=
